# This file uses centimeters as units for non-parametric coordinates.

mtllib vallas.mtl
g default
v -2.297550 -0.000000 1.325841
v -0.539899 -0.158367 1.325841
v -2.907949 4.890077 1.325841
v 0.003878 5.048444 1.325841
v -2.907949 4.890077 0.851997
v 0.003878 5.048444 0.851997
v -2.297550 -0.000000 0.851997
v -0.539899 -0.158367 0.851997
v -1.441562 6.861624 0.851997
v -1.432765 6.862102 1.325841
vt -0.215562 -1.003764
vt 1.215562 -1.003764
vt -0.215562 -0.251882
vt 1.215562 -0.251882
vt -0.215562 0.500000
vt 1.215562 0.500000
vt -0.215562 1.251882
vt 1.215562 1.251882
vt -0.215562 2.003764
vt 1.215562 2.003764
vt 2.646685 -1.003764
vt 2.646685 -0.251882
vt -1.646685 -1.003764
vt -1.646685 -0.251882
vt 0.591851 0.500000
vt 0.596174 -0.251882
vn -0.000000 -0.000000 1.000000
vn -0.000000 -0.000000 1.000000
vn -0.000000 -0.000000 1.000000
vn -0.000000 -0.000000 1.000000
vn -0.000000 -0.000000 1.000000
vn -0.069006 0.997616 0.000138
vn -0.039568 0.999217 -0.000137
vn 0.782884 0.622122 -0.007580
vn 0.782884 0.622122 -0.007580
vn 0.000000 0.000000 -1.000000
vn 0.000000 0.000000 -1.000000
vn 0.000000 0.000000 -1.000000
vn 0.000000 0.000000 -1.000000
vn 0.000000 0.000000 -1.000000
vn -0.089738 -0.995965 0.000000
vn -0.089738 -0.995965 0.000000
vn -0.089738 -0.995965 0.000000
vn -0.089738 -0.995965 0.000000
vn 0.994591 -0.103871 0.000000
vn 0.994591 -0.103871 0.000000
vn 0.994591 -0.103871 0.000000
vn 0.994591 -0.103871 0.000000
vn -0.992299 -0.123863 0.000000
vn -0.992299 -0.123863 0.000000
vn -0.992299 -0.123863 0.000000
vn -0.992299 -0.123863 0.000000
vn -0.801548 0.597887 0.007138
vn -0.801548 0.597887 0.007138
s off
g pCube1
usemtl lambert2SG
f 1/1/1 2/2/2 4/4/3 10/16/4 3/3/5
s 1
f 9/15/6 10/16/7 4/4/8 6/6/9
s off
f 5/5/10 9/15/11 6/6/12 8/8/13 7/7/14
f 7/7/15 8/8/16 2/10/17 1/9/18
f 2/2/19 8/11/20 6/12/21 4/4/22
f 7/13/23 1/1/24 3/3/25 5/14/26
s 1
f 3/3/27 10/16/7 9/15/6 5/5/28
g default
v -4.821668 3.364578 0.831698
v -2.370032 3.364578 0.831698
v -4.821668 3.364578 1.336570
v -2.370032 3.364578 1.336570
v -4.821668 4.287625 1.336570
v -2.370032 4.287625 1.336570
v -4.821668 4.287625 0.831698
v -2.370032 4.287625 0.831698
vt 0.375000 0.000000
vt 0.625000 0.000000
vt 0.375000 0.250000
vt 0.625000 0.250000
vt 0.375000 0.500000
vt 0.625000 0.500000
vt 0.375000 0.750000
vt 0.625000 0.750000
vt 0.375000 1.000000
vt 0.625000 1.000000
vt 0.875000 0.000000
vt 0.875000 0.250000
vt 0.125000 0.000000
vt 0.125000 0.250000
vn 0.000000 -1.000000 0.000000
vn 0.000000 -1.000000 0.000000
vn 0.000000 -1.000000 0.000000
vn 0.000000 -1.000000 0.000000
vn 0.000000 0.000000 1.000000
vn 0.000000 0.000000 1.000000
vn 0.000000 0.000000 1.000000
vn 0.000000 0.000000 1.000000
vn 0.000000 1.000000 0.000000
vn 0.000000 1.000000 0.000000
vn 0.000000 1.000000 0.000000
vn 0.000000 1.000000 0.000000
vn 0.000000 -0.000000 -1.000000
vn 0.000000 -0.000000 -1.000000
vn 0.000000 -0.000000 -1.000000
vn 0.000000 -0.000000 -1.000000
vn 1.000000 0.000000 0.000000
vn 1.000000 0.000000 0.000000
vn 1.000000 0.000000 0.000000
vn 1.000000 0.000000 0.000000
vn -1.000000 0.000000 0.000000
vn -1.000000 0.000000 0.000000
vn -1.000000 0.000000 0.000000
vn -1.000000 0.000000 0.000000
s off
g pCube2
usemtl lambert2SG
f 11/17/29 12/18/30 14/20/31 13/19/32
f 13/19/33 14/20/34 16/22/35 15/21/36
f 15/21/37 16/22/38 18/24/39 17/23/40
f 17/23/41 18/24/42 12/26/43 11/25/44
f 12/18/45 18/27/46 16/28/47 14/20/48
f 17/29/49 11/17/50 13/19/51 15/30/52
g default
v -5.108561 0.403518 1.325560
v -3.962979 0.436051 1.325560
v -6.062284 4.297861 1.325560
v -4.212817 4.691608 1.325560
v -6.062284 4.297861 0.851717
v -4.212817 4.691608 0.851717
v -5.108561 0.403518 0.851717
v -3.962979 0.436051 0.851717
v -5.348396 6.024289 0.851717
v -5.342808 6.025478 1.325560
vt -0.018534 -0.987035
vt 1.018534 -0.987035
vt -0.018534 -0.243517
vt 1.018534 -0.243517
vt -0.018534 0.500000
vt 1.018534 0.500000
vt -0.018534 1.243517
vt 1.018534 1.243517
vt -0.018534 1.987035
vt 1.018534 1.987035
vt 2.055603 -0.987035
vt 2.055603 -0.243517
vt -1.055603 -0.987035
vt -1.055603 -0.243517
vt 0.566560 0.500000
vt 0.569693 -0.243517
vn -0.000000 -0.000000 1.000000
vn -0.000000 -0.000000 1.000000
vn -0.000000 -0.000000 1.000000
vn -0.000000 -0.000000 1.000000
vn -0.000000 -0.000000 1.000000
vn -0.226294 0.974059 0.000112
vn -0.190045 0.981775 -0.000111
vn 0.762069 0.647474 -0.005305
vn 0.762069 0.647474 -0.005305
vn 0.000000 0.000000 -1.000000
vn 0.000000 0.000000 -1.000000
vn 0.000000 0.000000 -1.000000
vn 0.000000 0.000000 -1.000000
vn 0.000000 0.000000 -1.000000
vn 0.028387 -0.999597 0.000000
vn 0.028387 -0.999597 0.000000
vn 0.028387 -0.999597 0.000000
vn 0.028387 -0.999597 0.000000
vn 0.998281 0.058608 0.000000
vn 0.998281 0.058608 0.000000
vn 0.998281 0.058608 0.000000
vn 0.998281 0.058608 0.000000
vn -0.971297 -0.237870 0.000000
vn -0.971297 -0.237870 0.000000
vn -0.971297 -0.237870 0.000000
vn -0.971297 -0.237870 0.000000
vn -0.923617 0.383284 0.004964
vn -0.923617 0.383284 0.004964
s off
g pasted__pCube1 group
usemtl lambert2SG
f 19/31/53 20/32/54 22/34/55 28/46/56 21/33/57
s 1
f 27/45/58 28/46/59 22/34/60 24/36/61
s off
f 23/35/62 27/45/63 24/36/64 26/38/65 25/37/66
f 25/37/67 26/38/68 20/40/69 19/39/70
f 20/32/71 26/41/72 24/42/73 22/34/74
f 25/43/75 19/31/76 21/33/77 23/44/78
s 1
f 21/33/79 28/46/59 27/45/58 23/35/80
g default
v -0.465632 3.364578 0.831698
v 1.986003 3.364578 0.831698
v -0.465632 3.364578 1.336570
v 1.986003 3.364578 1.336570
v -0.465632 4.287625 1.336570
v 1.986003 4.287625 1.336570
v -0.465632 4.287625 0.831698
v 1.986003 4.287625 0.831698
vt 0.375000 0.000000
vt 0.625000 0.000000
vt 0.375000 0.250000
vt 0.625000 0.250000
vt 0.375000 0.500000
vt 0.625000 0.500000
vt 0.375000 0.750000
vt 0.625000 0.750000
vt 0.375000 1.000000
vt 0.625000 1.000000
vt 0.875000 0.000000
vt 0.875000 0.250000
vt 0.125000 0.000000
vt 0.125000 0.250000
vn 0.000000 -1.000000 0.000000
vn 0.000000 -1.000000 0.000000
vn 0.000000 -1.000000 0.000000
vn 0.000000 -1.000000 0.000000
vn 0.000000 0.000000 1.000000
vn 0.000000 0.000000 1.000000
vn 0.000000 0.000000 1.000000
vn 0.000000 0.000000 1.000000
vn 0.000000 1.000000 0.000000
vn 0.000000 1.000000 0.000000
vn 0.000000 1.000000 0.000000
vn 0.000000 1.000000 0.000000
vn 0.000000 -0.000000 -1.000000
vn 0.000000 -0.000000 -1.000000
vn 0.000000 -0.000000 -1.000000
vn 0.000000 -0.000000 -1.000000
vn 1.000000 0.000000 0.000000
vn 1.000000 0.000000 0.000000
vn 1.000000 0.000000 0.000000
vn 1.000000 0.000000 0.000000
vn -1.000000 0.000000 0.000000
vn -1.000000 0.000000 0.000000
vn -1.000000 0.000000 0.000000
vn -1.000000 0.000000 0.000000
s off
g pasted__pCube2 group1
usemtl lambert2SG
f 29/47/81 30/48/82 32/50/83 31/49/84
f 31/49/85 32/50/86 34/52/87 33/51/88
f 33/51/89 34/52/90 36/54/91 35/53/92
f 35/53/93 36/54/94 30/56/95 29/55/96
f 30/48/97 36/57/98 34/58/99 32/50/100
f 35/59/101 29/47/102 31/49/103 33/60/104
g default
v 1.539864 -0.000000 1.325841
v 3.297515 -0.158367 1.325841
v 0.929465 4.890077 1.325841
v 3.841292 5.048444 1.325841
v 0.929465 4.890077 0.851997
v 3.841292 5.048444 0.851997
v 1.539864 -0.000000 0.851997
v 3.297515 -0.158367 0.851997
v 1.616242 7.683336 0.851997
v 1.625038 7.683814 1.325841
vt -0.527334 -3.355905
vt 1.527334 -3.355905
vt -0.527334 -1.427953
vt 1.527334 -1.427953
vt -0.527334 0.500000
vt 1.527334 0.500000
vt -0.527334 2.427953
vt 1.527334 2.427953
vt -0.527334 4.355906
vt 1.527334 4.355906
vt 3.582002 -3.355905
vt 3.582002 -1.427953
vt -2.582002 -3.355905
vt -2.582002 -1.427953
vt 0.631871 0.500000
vt 0.638078 -1.427953
vn 0.000000 -0.000000 1.000000
vn 0.000000 -0.000000 1.000000
vn 0.000000 -0.000000 1.000000
vn 0.000000 -0.000000 1.000000
vn 0.000000 -0.000000 1.000000
vn -0.071495 0.997441 0.000161
vn -0.037270 0.999305 -0.000158
vn 0.764662 0.644389 -0.007422
vn 0.764662 0.644389 -0.007422
vn 0.000000 0.000000 -1.000000
vn 0.000000 0.000000 -1.000000
vn 0.000000 0.000000 -1.000000
vn 0.000000 0.000000 -1.000000
vn 0.000000 0.000000 -1.000000
vn -0.089738 -0.995965 0.000000
vn -0.089738 -0.995965 0.000000
vn -0.089738 -0.995965 0.000000
vn -0.089738 -0.995965 0.000000
vn 0.994591 -0.103871 0.000000
vn 0.994591 -0.103871 0.000000
vn 0.994591 -0.103871 0.000000
vn 0.994591 -0.103871 0.000000
vn -0.992299 -0.123863 0.000000
vn -0.992299 -0.123863 0.000000
vn -0.992299 -0.123863 0.000000
vn -0.992299 -0.123863 0.000000
vn -0.970690 0.240171 0.008889
vn -0.970690 0.240171 0.008889
s off
g pasted__pCube1 group2
usemtl lambert2SG
f 37/61/105 38/62/106 40/64/107 46/76/108 39/63/109
s 1
f 45/75/110 46/76/111 40/64/112 42/66/113
s off
f 41/65/114 45/75/115 42/66/116 44/68/117 43/67/118
f 43/67/119 44/68/120 38/70/121 37/69/122
f 38/62/123 44/71/124 42/72/125 40/64/126
f 43/73/127 37/61/128 39/63/129 41/74/130
s 1
f 39/63/131 46/76/111 45/75/110 41/65/132
g default
v -8.060005 3.364578 0.831698
v -5.608369 3.364578 0.831698
v -8.060005 3.364578 1.336570
v -5.608369 3.364578 1.336570
v -8.060005 4.287625 1.336570
v -5.608369 4.287625 1.336570
v -8.060005 4.287625 0.831698
v -5.608369 4.287625 0.831698
vt 0.375000 0.000000
vt 0.625000 0.000000
vt 0.375000 0.250000
vt 0.625000 0.250000
vt 0.375000 0.500000
vt 0.625000 0.500000
vt 0.375000 0.750000
vt 0.625000 0.750000
vt 0.375000 1.000000
vt 0.625000 1.000000
vt 0.875000 0.000000
vt 0.875000 0.250000
vt 0.125000 0.000000
vt 0.125000 0.250000
vn 0.000000 -1.000000 0.000000
vn 0.000000 -1.000000 0.000000
vn 0.000000 -1.000000 0.000000
vn 0.000000 -1.000000 0.000000
vn 0.000000 0.000000 1.000000
vn 0.000000 0.000000 1.000000
vn 0.000000 0.000000 1.000000
vn 0.000000 0.000000 1.000000
vn 0.000000 1.000000 0.000000
vn 0.000000 1.000000 0.000000
vn 0.000000 1.000000 0.000000
vn 0.000000 1.000000 0.000000
vn 0.000000 -0.000000 -1.000000
vn 0.000000 -0.000000 -1.000000
vn 0.000000 -0.000000 -1.000000
vn 0.000000 -0.000000 -1.000000
vn 1.000000 0.000000 0.000000
vn 1.000000 0.000000 0.000000
vn 1.000000 0.000000 0.000000
vn 1.000000 0.000000 0.000000
vn -1.000000 0.000000 0.000000
vn -1.000000 0.000000 0.000000
vn -1.000000 0.000000 0.000000
vn -1.000000 0.000000 0.000000
s off
g pasted__pCube2 group3
usemtl lambert2SG
f 47/77/133 48/78/134 50/80/135 49/79/136
f 49/79/137 50/80/138 52/82/139 51/81/140
f 51/81/141 52/82/142 54/84/143 53/83/144
f 53/83/145 54/84/146 48/86/147 47/85/148
f 48/78/149 54/87/150 52/88/151 50/80/152
f 53/89/153 47/77/154 49/79/155 51/90/156
g default
v -8.536185 0.452175 1.325560
v -7.397157 0.325563 1.325560
v -8.940760 4.441136 1.325560
v -7.054563 4.574659 1.325560
v -8.940760 4.441136 0.851717
v -7.054563 4.574659 0.851717
v -8.536185 0.452175 0.851717
v -7.397157 0.325563 0.851717
v -7.994403 6.051913 0.851717
v -7.988705 6.052315 1.325560
vt -0.012907 -1.503707
vt 1.012907 -1.503707
vt -0.012907 -0.501853
vt 1.012907 -0.501853
vt -0.012907 0.500000
vt 1.012907 0.500000
vt -0.012907 1.501853
vt 1.012907 1.501853
vt -0.012907 2.503707
vt 1.012907 2.503707
vt 2.038721 -1.503707
vt 2.038721 -0.501853
vt -1.038721 -1.503707
vt -1.038721 -0.501853
vt 0.565838 0.500000
vt 0.568937 -0.501853
vn -0.000000 -0.000000 1.000000
vn -0.000000 -0.000000 1.000000
vn -0.000000 -0.000000 1.000000
vn -0.000000 -0.000000 1.000000
vn -0.000000 -0.000000 1.000000
vn -0.089059 0.996026 0.000112
vn -0.052090 0.998642 -0.000111
vn 0.844479 0.535562 -0.005305
vn 0.844479 0.535562 -0.005305
vn 0.000000 0.000000 -1.000000
vn 0.000000 0.000000 -1.000000
vn 0.000000 0.000000 -1.000000
vn 0.000000 0.000000 -1.000000
vn 0.000000 0.000000 -1.000000
vn -0.110477 -0.993879 0.000000
vn -0.110477 -0.993879 0.000000
vn -0.110477 -0.993879 0.000000
vn -0.110477 -0.993879 0.000000
vn 0.996765 -0.080367 0.000000
vn 0.996765 -0.080367 0.000000
vn 0.996765 -0.080367 0.000000
vn 0.996765 -0.080367 0.000000
vn -0.994896 -0.100906 0.000000
vn -0.994896 -0.100906 0.000000
vn -0.994896 -0.100906 0.000000
vn -0.994896 -0.100906 0.000000
vn -0.861556 0.507638 0.004964
vn -0.861556 0.507638 0.004964
s off
g pasted__pasted__pCube1 pasted__group group4
usemtl lambert2SG
f 55/91/157 56/92/158 58/94/159 64/106/160 57/93/161
s 1
f 63/105/162 64/106/163 58/94/164 60/96/165
s off
f 59/95/166 63/105/167 60/96/168 62/98/169 61/97/170
f 61/97/171 62/98/172 56/100/173 55/99/174
f 56/92/175 62/101/176 60/102/177 58/94/178
f 61/103/179 55/91/180 57/93/181 59/104/182
s 1
f 57/93/183 64/106/163 63/105/162 59/95/184
g default
v 3.134456 3.364578 0.831698
v 5.586092 3.364578 0.831698
v 3.134456 3.364578 1.336570
v 5.586092 3.364578 1.336570
v 3.134456 4.287625 1.336570
v 5.586092 4.287625 1.336570
v 3.134456 4.287625 0.831698
v 5.586092 4.287625 0.831698
vt 0.092273 -1.130908
vt 0.907727 -1.130908
vt 0.092273 -0.315454
vt 0.907727 -0.315454
vt 0.092273 0.500000
vt 0.907727 0.500000
vt 0.092273 1.315454
vt 0.907727 1.315454
vt 0.092273 2.130908
vt 0.907727 2.130908
vt 1.723181 -1.130908
vt 1.723181 -0.315454
vt -0.723181 -1.130908
vt -0.723181 -0.315454
vn 0.000000 -1.000000 0.000000
vn 0.000000 -1.000000 0.000000
vn 0.000000 -1.000000 0.000000
vn 0.000000 -1.000000 0.000000
vn 0.000000 0.000000 1.000000
vn 0.000000 0.000000 1.000000
vn 0.000000 0.000000 1.000000
vn 0.000000 0.000000 1.000000
vn 0.000000 1.000000 0.000000
vn 0.000000 1.000000 0.000000
vn 0.000000 1.000000 0.000000
vn 0.000000 1.000000 0.000000
vn 0.000000 -0.000000 -1.000000
vn 0.000000 -0.000000 -1.000000
vn 0.000000 -0.000000 -1.000000
vn 0.000000 -0.000000 -1.000000
vn 1.000000 0.000000 0.000000
vn 1.000000 0.000000 0.000000
vn 1.000000 0.000000 0.000000
vn 1.000000 0.000000 0.000000
vn -1.000000 0.000000 0.000000
vn -1.000000 0.000000 0.000000
vn -1.000000 0.000000 0.000000
vn -1.000000 0.000000 0.000000
s off
g pasted__pasted__pCube2 pasted__group3 group5
usemtl lambert2SG
f 65/107/185 66/108/186 68/110/187 67/109/188
f 67/109/189 68/110/190 70/112/191 69/111/192
f 69/111/193 70/112/194 72/114/195 71/113/196
f 71/113/197 72/114/198 66/116/199 65/115/200
f 66/108/201 72/117/202 70/118/203 68/110/204
f 71/119/205 65/107/206 67/109/207 69/120/208
g default
v -10.598939 3.364578 0.831698
v -8.147303 3.364578 0.831698
v -10.598939 3.364578 1.336570
v -8.147303 3.364578 1.336570
v -10.598939 4.287625 1.336570
v -8.147303 4.287625 1.336570
v -10.598939 4.287625 0.831698
v -8.147303 4.287625 0.831698
vt 0.375000 0.000000
vt 0.625000 0.000000
vt 0.375000 0.250000
vt 0.625000 0.250000
vt 0.375000 0.500000
vt 0.625000 0.500000
vt 0.375000 0.750000
vt 0.625000 0.750000
vt 0.375000 1.000000
vt 0.625000 1.000000
vt 0.875000 0.000000
vt 0.875000 0.250000
vt 0.125000 0.000000
vt 0.125000 0.250000
vn 0.000000 -1.000000 0.000000
vn 0.000000 -1.000000 0.000000
vn 0.000000 -1.000000 0.000000
vn 0.000000 -1.000000 0.000000
vn 0.000000 0.000000 1.000000
vn 0.000000 0.000000 1.000000
vn 0.000000 0.000000 1.000000
vn 0.000000 0.000000 1.000000
vn 0.000000 1.000000 0.000000
vn 0.000000 1.000000 0.000000
vn 0.000000 1.000000 0.000000
vn 0.000000 1.000000 0.000000
vn 0.000000 -0.000000 -1.000000
vn 0.000000 -0.000000 -1.000000
vn 0.000000 -0.000000 -1.000000
vn 0.000000 -0.000000 -1.000000
vn 1.000000 0.000000 0.000000
vn 1.000000 0.000000 0.000000
vn 1.000000 0.000000 0.000000
vn 1.000000 0.000000 0.000000
vn -1.000000 0.000000 0.000000
vn -1.000000 0.000000 0.000000
vn -1.000000 0.000000 0.000000
vn -1.000000 0.000000 0.000000
s off
g pasted__pasted__pCube2 pasted__group3 group7
usemtl pasted__lambert2SG
f 73/121/209 74/122/210 76/124/211 75/123/212
f 75/123/213 76/124/214 78/126/215 77/125/216
f 77/125/217 78/126/218 80/128/219 79/127/220
f 79/127/221 80/128/222 74/130/223 73/129/224
f 74/122/225 80/131/226 78/132/227 76/124/228
f 79/133/229 73/121/230 75/123/231 77/134/232
g default
v 5.069493 -0.352003 1.325560
v 6.437660 -0.519340 1.325560
v 4.582466 4.910439 1.325560
v 6.848016 5.086077 1.325560
v 4.582466 4.910439 0.851717
v 6.848016 5.086077 0.851717
v 5.069493 -0.352003 0.851717
v 6.437660 -0.519340 0.851717
v 5.718738 7.035158 0.851717
v 5.725582 7.035688 1.325560
vt -0.092822 -1.946752
vt 1.092822 -1.946752
vt -0.092822 -0.723376
vt 1.092822 -0.723376
vt -0.092822 0.500000
vt 1.092822 0.500000
vt -0.092822 1.723376
vt 1.092822 1.723376
vt -0.092822 2.946752
vt 1.092822 2.946752
vt 2.278465 -1.946752
vt 2.278465 -0.723376
vt -1.278465 -1.946752
vt -1.278465 -0.723376
vt 0.576096 0.500000
vt 0.579678 -0.723376
vn -0.000000 -0.000000 1.000000
vn -0.000000 -0.000000 1.000000
vn -0.000000 -0.000000 1.000000
vn -0.000000 -0.000000 1.000000
vn -0.000000 -0.000000 1.000000
vn -0.097515 0.995234 0.000148
vn -0.056972 0.998376 -0.000147
vn 0.865930 0.500122 -0.006533
vn 0.865930 0.500122 -0.006533
vn 0.000000 0.000000 -1.000000
vn 0.000000 0.000000 -1.000000
vn 0.000000 0.000000 -1.000000
vn 0.000000 0.000000 -1.000000
vn 0.000000 0.000000 -1.000000
vn -0.121403 -0.992603 0.000000
vn -0.121403 -0.992603 0.000000
vn -0.121403 -0.992603 0.000000
vn -0.121403 -0.992603 0.000000
vn 0.997331 -0.073012 0.000000
vn 0.997331 -0.073012 0.000000
vn 0.997331 -0.073012 0.000000
vn 0.997331 -0.073012 0.000000
vn -0.995745 -0.092154 0.000000
vn -0.995745 -0.092154 0.000000
vn -0.995745 -0.092154 0.000000
vn -0.995745 -0.092154 0.000000
vn -0.881237 0.472635 0.006100
vn -0.881237 0.472635 0.006100
s off
g group5 pasted__pasted__pasted__pCube1 pasted__pasted__group pasted__group4
usemtl lambert2SG
f 81/135/233 82/136/234 84/138/235 90/150/236 83/137/237
s 1
f 89/149/238 90/150/239 84/138/240 86/140/241
s off
f 85/139/242 89/149/243 86/140/244 88/142/245 87/141/246
f 87/141/247 88/142/248 82/144/249 81/143/250
f 82/136/251 88/145/252 86/146/253 84/138/254
f 87/147/255 81/135/256 83/137/257 85/148/258
s 1
f 83/137/259 90/150/239 89/149/238 85/139/260
g default
v 5.958631 3.364578 0.831698
v 8.410267 3.364578 0.831698
v 5.958631 3.364578 1.336570
v 8.410267 3.364578 1.336570
v 5.958631 4.287625 1.336570
v 8.410267 4.287625 1.336570
v 5.958631 4.287625 0.831698
v 8.410267 4.287625 0.831698
vt 0.092273 -1.130908
vt 0.907727 -1.130908
vt 0.092273 -0.315454
vt 0.907727 -0.315454
vt 0.092273 0.500000
vt 0.907727 0.500000
vt 0.092273 1.315454
vt 0.907727 1.315454
vt 0.092273 2.130908
vt 0.907727 2.130908
vt 1.723181 -1.130908
vt 1.723181 -0.315454
vt -0.723181 -1.130908
vt -0.723181 -0.315454
vn 0.000000 -1.000000 0.000000
vn 0.000000 -1.000000 0.000000
vn 0.000000 -1.000000 0.000000
vn 0.000000 -1.000000 0.000000
vn 0.000000 0.000000 1.000000
vn 0.000000 0.000000 1.000000
vn 0.000000 0.000000 1.000000
vn 0.000000 0.000000 1.000000
vn 0.000000 1.000000 0.000000
vn 0.000000 1.000000 0.000000
vn 0.000000 1.000000 0.000000
vn 0.000000 1.000000 0.000000
vn 0.000000 -0.000000 -1.000000
vn 0.000000 -0.000000 -1.000000
vn 0.000000 -0.000000 -1.000000
vn 0.000000 -0.000000 -1.000000
vn 1.000000 0.000000 0.000000
vn 1.000000 0.000000 0.000000
vn 1.000000 0.000000 0.000000
vn 1.000000 0.000000 0.000000
vn -1.000000 0.000000 0.000000
vn -1.000000 0.000000 0.000000
vn -1.000000 0.000000 0.000000
vn -1.000000 0.000000 0.000000
s off
g pasted__pasted__pasted__pCube2 pasted__pasted__group3 pasted__group5 group8
usemtl pasted__lambert2SG1
f 91/151/261 92/152/262 94/154/263 93/153/264
f 93/153/265 94/154/266 96/156/267 95/155/268
f 95/155/269 96/156/270 98/158/271 97/157/272
f 97/157/273 98/158/274 92/160/275 91/159/276
f 92/152/277 98/161/278 96/162/279 94/154/280
f 97/163/281 91/151/282 93/153/283 95/164/284
